<svg width="15" height="17" viewBox="0 0 15 17" fill="none" xmlns="http://www.w3.org/2000/svg">
<path d="M14 8.0625V8.9375H7.4375V15.5H6.5625V8.9375H0V8.0625H6.5625V1.5H7.4375V8.0625H14Z" fill="#333333"/>
<path d="M14 8.0625H15V7.0625H14V8.0625ZM14 8.9375V9.9375H15V8.9375H14ZM7.4375 8.9375V7.9375H6.4375V8.9375H7.4375ZM7.4375 15.5V16.5H8.4375V15.5H7.4375ZM6.5625 15.5H5.5625V16.5H6.5625V15.5ZM6.5625 8.9375H7.5625V7.9375H6.5625V8.9375ZM0 8.9375H-1V9.9375H0V8.9375ZM0 8.0625V7.0625H-1V8.0625H0ZM6.5625 8.0625V9.0625H7.5625V8.0625H6.5625ZM6.5625 1.5V0.5H5.5625V1.5H6.5625ZM7.4375 1.5H8.4375V0.5H7.4375V1.5ZM7.4375 8.0625H6.4375V9.0625H7.4375V8.0625ZM13 8.0625V8.9375H15V8.0625H13ZM14 7.9375H7.4375V9.9375H14V7.9375ZM6.4375 8.9375V15.5H8.4375V8.9375H6.4375ZM7.4375 14.5H6.5625V16.5H7.4375V14.5ZM7.5625 15.5V8.9375H5.5625V15.5H7.5625ZM6.5625 7.9375H0V9.9375H6.5625V7.9375ZM1 8.9375V8.0625H-1V8.9375H1ZM0 9.0625H6.5625V7.0625H0V9.0625ZM7.5625 8.0625V1.5H5.5625V8.0625H7.5625ZM6.5625 2.5H7.4375V0.5H6.5625V2.5ZM6.4375 1.5V8.0625H8.4375V1.5H6.4375ZM7.4375 9.0625H14V7.0625H7.4375V9.0625Z" fill="#333333"/>
</svg>
