<svg width="13" height="15" viewBox="0 0 13 15" fill="none" xmlns="http://www.w3.org/2000/svg">
<path d="M7.38281 14.2305C7.03646 14.5768 6.6263 14.75 6.15234 14.75C5.67839 14.75 5.26823 14.5768 4.92188 14.2305C4.57552 13.9023 4.40234 13.4922 4.40234 13H7.90234C7.90234 13.4922 7.72917 13.9023 7.38281 14.2305ZM12.0312 10.6484C12.1953 10.8307 12.2773 11.0312 12.2773 11.25C12.2773 11.487 12.1953 11.6966 12.0312 11.8789C11.8672 12.043 11.6576 12.125 11.4023 12.125H0.902344C0.738281 12.125 0.583333 12.0885 0.4375 12.0156C0.309896 11.9245 0.209635 11.8151 0.136719 11.6875C0.0638021 11.5417 0.0273438 11.3958 0.0273438 11.25C0.0273438 11.0312 0.109375 10.8307 0.273438 10.6484C0.291667 10.6302 0.31901 10.5938 0.355469 10.5391C0.628906 10.2656 0.838542 10.0195 0.984375 9.80078C1.14844 9.58203 1.32161 9.17188 1.50391 8.57031C1.6862 7.95052 1.77734 7.23958 1.77734 6.4375C1.77734 5.38021 2.10547 4.45964 2.76172 3.67578C3.41797 2.89193 4.25651 2.39974 5.27734 2.19922V1.625C5.27734 1.38802 5.35938 1.1875 5.52344 1.02344C5.70573 0.841146 5.91536 0.75 6.15234 0.75C6.38932 0.75 6.58984 0.841146 6.75391 1.02344C6.9362 1.1875 7.02734 1.38802 7.02734 1.625V2.19922C7.70182 2.32682 8.30339 2.59115 8.83203 2.99219C9.36068 3.39323 9.77083 3.89453 10.0625 4.49609C10.3724 5.09766 10.5273 5.74479 10.5273 6.4375C10.5273 7.23958 10.6185 7.95052 10.8008 8.57031C10.9831 9.17188 11.1471 9.58203 11.293 9.80078C11.457 10.0195 11.6758 10.2656 11.9492 10.5391C11.9857 10.5938 12.013 10.6302 12.0312 10.6484Z" fill="#333333"/>
</svg>
