<svg width="20" height="20" viewBox="0 0 20 20" fill="none" xmlns="http://www.w3.org/2000/svg">
<path fill-rule="evenodd" clip-rule="evenodd" d="M6.80662 2.03759C6.96118 1.80575 7.22137 1.6665 7.5 1.6665H12.5C12.7786 1.6665 13.0388 1.80575 13.1934 2.03759L14.6127 4.1665H17.5C18.163 4.1665 18.7989 4.4299 19.2678 4.89874C19.7366 5.36758 20 6.00346 20 6.6665V15.8332C20 16.4962 19.7366 17.1321 19.2678 17.6009C18.7989 18.0698 18.163 18.3332 17.5 18.3332H2.5C1.83696 18.3332 1.20107 18.0698 0.732233 17.6009C0.263392 17.1321 0 16.4962 0 15.8332V6.6665C0 6.00346 0.263392 5.36758 0.732233 4.89874C1.20107 4.4299 1.83696 4.1665 2.5 4.1665H5.38735L6.80662 2.03759ZM7.94599 3.33317L6.52671 5.46209C6.37215 5.69392 6.11196 5.83317 5.83333 5.83317H2.5C2.27899 5.83317 2.06702 5.92097 1.91074 6.07725C1.75446 6.23353 1.66667 6.44549 1.66667 6.6665V15.8332C1.66667 16.0542 1.75446 16.2661 1.91074 16.4224C2.06702 16.5787 2.27899 16.6665 2.5 16.6665H17.5C17.721 16.6665 17.933 16.5787 18.0893 16.4224C18.2455 16.2661 18.3333 16.0542 18.3333 15.8332V6.6665C18.3333 6.44549 18.2455 6.23353 18.0893 6.07725C17.933 5.92097 17.721 5.83317 17.5 5.83317H14.1667C13.888 5.83317 13.6278 5.69392 13.4733 5.46209L12.054 3.33317H7.94599Z" fill="white" fill-opacity="0.7"/>
<path fill-rule="evenodd" clip-rule="evenodd" d="M10.0002 8.33317C8.61945 8.33317 7.50016 9.45246 7.50016 10.8332C7.50016 12.2139 8.61945 13.3332 10.0002 13.3332C11.3809 13.3332 12.5002 12.2139 12.5002 10.8332C12.5002 9.45246 11.3809 8.33317 10.0002 8.33317ZM5.8335 10.8332C5.8335 8.53198 7.69898 6.6665 10.0002 6.6665C12.3013 6.6665 14.1668 8.53198 14.1668 10.8332C14.1668 13.1344 12.3013 14.9998 10.0002 14.9998C7.69898 14.9998 5.8335 13.1344 5.8335 10.8332Z" fill="white" fill-opacity="0.7"/>
</svg>
