<svg width="14" height="15" viewBox="0 0 14 15" fill="none" xmlns="http://www.w3.org/2000/svg">
<path d="M0.875 14.5C0.875 13.8483 0.968424 13.2217 1.15527 12.6201C1.34668 12.0186 1.61784 11.4648 1.96875 10.959C2.31966 10.4531 2.74349 10.0088 3.24023 9.62598C3.74154 9.24316 4.30208 8.94238 4.92188 8.72363C4.56641 8.53223 4.2474 8.2998 3.96484 8.02637C3.68229 7.75293 3.44076 7.44987 3.24023 7.11719C3.04427 6.78451 2.8916 6.42904 2.78223 6.05078C2.67741 5.66797 2.625 5.27604 2.625 4.875C2.625 4.47396 2.67741 4.08659 2.78223 3.71289C2.88704 3.33919 3.03288 2.99056 3.21973 2.66699C3.41113 2.34342 3.639 2.04948 3.90332 1.78516C4.1722 1.51628 4.46842 1.28841 4.79199 1.10156C5.11556 0.910156 5.46419 0.762044 5.83789 0.657227C6.21159 0.552409 6.59896 0.5 7 0.5C7.40104 0.5 7.78841 0.552409 8.16211 0.657227C8.53581 0.762044 8.88444 0.910156 9.20801 1.10156C9.53158 1.28841 9.82552 1.51628 10.0898 1.78516C10.3587 2.04948 10.5866 2.34342 10.7734 2.66699C10.9648 2.99056 11.113 3.33919 11.2178 3.71289C11.3226 4.08659 11.375 4.47396 11.375 4.875C11.375 5.27604 11.3203 5.66797 11.2109 6.05078C11.1061 6.42904 10.9535 6.78451 10.7529 7.11719C10.557 7.44987 10.3177 7.75293 10.0352 8.02637C9.7526 8.2998 9.43359 8.53223 9.07812 8.72363C9.69336 8.94238 10.2493 9.24316 10.7461 9.62598C11.2474 10.0088 11.6735 10.4531 12.0244 10.959C12.3799 11.4648 12.651 12.0186 12.8379 12.6201C13.0293 13.2217 13.125 13.8483 13.125 14.5H0.875Z" fill="#333333"/>
</svg>
