<svg width="11" height="15" viewBox="0 0 11 15" fill="none" xmlns="http://www.w3.org/2000/svg">
<path fill-rule="evenodd" clip-rule="evenodd" d="M10.5 14.5V6.625H8.75V4.06836C8.75 3.57617 8.66113 3.11361 8.4834 2.68066C8.30566 2.24772 8.05957 1.86947 7.74512 1.5459C7.43066 1.22233 7.05924 0.967122 6.63086 0.780273C6.20703 0.593424 5.74674 0.5 5.25 0.5C4.75326 0.5 4.29069 0.593424 3.8623 0.780273C3.43848 0.967122 3.06934 1.22233 2.75488 1.5459C2.44043 1.86947 2.19434 2.24772 2.0166 2.68066C1.83887 3.11361 1.75 3.57617 1.75 4.06836V6.625H0V7V14V14.5H10.5ZM7.875 4.06836V6.625H2.625V4.06836C2.625 3.69922 2.69108 3.35286 2.82324 3.0293C2.9554 2.70117 3.1377 2.41406 3.37012 2.16797C3.6071 1.92188 3.88509 1.72819 4.2041 1.58691C4.52767 1.44564 4.8763 1.375 5.25 1.375C5.6237 1.375 5.97005 1.44564 6.28906 1.58691C6.61263 1.72819 6.89062 1.92188 7.12305 2.16797C7.36003 2.41406 7.5446 2.70117 7.67676 3.0293C7.80892 3.35286 7.875 3.69922 7.875 4.06836Z" fill="#333333"/>
</svg>
