<svg width="12" height="10" viewBox="0 0 12 10" fill="none" xmlns="http://www.w3.org/2000/svg">
<path d="M11.2916 3.85566C11.3754 3.78301 11.5 3.85098 11.5 3.96582V8.75879C11.5 9.37988 11.0381 9.88379 10.4688 9.88379H1.53125C0.961914 9.88379 0.5 9.37988 0.5 8.75879V3.96816C0.5 3.85098 0.622461 3.78535 0.708398 3.85801C1.18965 4.26582 1.82773 4.78379 4.01914 6.52051C4.47246 6.88145 5.2373 7.64082 6 7.63613C6.76699 7.64316 7.54687 6.86738 7.98301 6.52051C10.1744 4.78379 10.8104 4.26348 11.2916 3.85566ZM6 6.88379C6.49844 6.89316 7.21602 6.19941 7.57695 5.91348C10.4279 3.65645 10.6449 3.45957 11.3023 2.89707C11.427 2.7916 11.5 2.62754 11.5 2.4541V2.00879C11.5 1.3877 11.0381 0.883789 10.4688 0.883789H1.53125C0.961914 0.883789 0.5 1.3877 0.5 2.00879V2.4541C0.5 2.62754 0.573047 2.78926 0.697656 2.89707C1.35508 3.45723 1.57207 3.65645 4.42305 5.91348C4.78398 6.19941 5.50156 6.89316 6 6.88379Z" fill="#777777"/>
</svg>
