<svg width="181" height="25" viewBox="0 0 181 25" fill="none" xmlns="http://www.w3.org/2000/svg">
<path d="M64.2684 8.53754C64.2684 8.6578 64.2523 8.80539 64.2202 8.98032C64.188 9.15525 64.129 9.4067 64.0432 9.73469L60.2138 22.969C60.1601 23.1549 60.0904 23.3079 60.0046 23.4282C59.9188 23.5375 59.7847 23.625 59.6024 23.6906C59.4307 23.7562 59.1787 23.7999 58.8461 23.8218C58.5243 23.8436 58.1006 23.8546 57.575 23.8546C57.0494 23.8546 56.6204 23.8382 56.2878 23.8054C55.9553 23.7835 55.6925 23.7398 55.4994 23.6742C55.3171 23.6086 55.183 23.5211 55.0972 23.4118C55.0114 23.2915 54.947 23.1439 54.9041 22.969L52.4906 14.0805L52.4584 13.9329L52.4263 14.0805L50.2059 22.969C50.163 23.1549 50.0986 23.3079 50.0128 23.4282C49.9377 23.5375 49.8036 23.625 49.6105 23.6906C49.4175 23.7562 49.1547 23.7999 48.8221 23.8218C48.4896 23.8436 48.0605 23.8546 47.5349 23.8546C46.9986 23.8546 46.5642 23.8382 46.2317 23.8054C45.9099 23.7835 45.6524 23.7398 45.4593 23.6742C45.277 23.6086 45.1429 23.5211 45.0571 23.4118C44.9713 23.2915 44.9069 23.1439 44.864 22.969L41.0668 9.73469C40.9703 9.41764 40.9059 9.17165 40.8737 8.99672C40.8523 8.81086 40.8416 8.6578 40.8416 8.53754C40.8416 8.42821 40.8684 8.33528 40.922 8.25875C40.9864 8.17128 41.0936 8.10569 41.2438 8.06196C41.4047 8.00729 41.6139 7.96903 41.8713 7.94716C42.1395 7.92529 42.472 7.91436 42.8689 7.91436C43.2979 7.91436 43.6466 7.92529 43.9147 7.94716C44.1829 7.96903 44.3921 8.00729 44.5422 8.06196C44.6924 8.11662 44.7943 8.19315 44.8479 8.29155C44.9123 8.37901 44.9606 8.48834 44.9927 8.61953L47.8407 19.3611L47.8728 19.5579L47.905 19.3611L50.5759 8.61953C50.6081 8.48834 50.6564 8.37901 50.7207 8.29155C50.7958 8.19315 50.9031 8.11662 51.0425 8.06196C51.182 8.00729 51.3751 7.96903 51.6218 7.94716C51.8792 7.92529 52.2064 7.91436 52.6033 7.91436C53.0001 7.91436 53.3219 7.93076 53.5687 7.96356C53.8154 7.98542 54.0084 8.02369 54.1479 8.07835C54.2981 8.12209 54.4 8.18768 54.4536 8.27515C54.518 8.35168 54.5662 8.44461 54.5984 8.55394L57.4624 19.3775L57.5107 19.5579L57.5429 19.3611L60.2781 8.61953C60.2996 8.48834 60.3425 8.37901 60.4069 8.29155C60.4712 8.19315 60.5785 8.11662 60.7286 8.06196C60.8788 8.00729 61.0826 7.96903 61.3401 7.94716C61.5975 7.92529 61.9247 7.91436 62.3215 7.91436C62.7184 7.91436 63.0402 7.92529 63.2869 7.94716C63.5444 7.96903 63.7428 8.00729 63.8823 8.06196C64.0324 8.10569 64.1343 8.17128 64.188 8.25875C64.2416 8.33528 64.2684 8.42821 64.2684 8.53754Z" fill="#333333"/>
<path d="M81.0824 15.7369C81.0824 16.9832 80.9215 18.1202 80.5997 19.1479C80.2779 20.1756 79.7898 21.0612 79.1355 21.8046C78.4812 22.5481 77.6606 23.1221 76.6737 23.5266C75.6869 23.9311 74.5338 24.1334 73.2144 24.1334C71.9379 24.1334 70.8277 23.953 69.8838 23.5922C68.9399 23.2314 68.1568 22.7066 67.5347 22.0178C66.9125 21.3291 66.4513 20.4818 66.1509 19.4759C65.8506 18.4701 65.7004 17.3221 65.7004 16.0321C65.7004 14.7857 65.8613 13.6487 66.1831 12.621C66.5156 11.5824 67.0091 10.6968 67.6634 9.96428C68.3177 9.22085 69.1329 8.64687 70.1091 8.24235C71.0959 7.83783 72.249 7.63557 73.5684 7.63557C74.8556 7.63557 75.9711 7.81596 76.9151 8.17675C77.859 8.5266 78.6367 9.04592 79.2481 9.73469C79.8703 10.4235 80.3315 11.2708 80.6318 12.2766C80.9322 13.2824 81.0824 14.4359 81.0824 15.7369ZM76.9151 15.9009C76.9151 15.1793 76.8561 14.5178 76.7381 13.9165C76.6308 13.3043 76.4431 12.774 76.1749 12.3258C75.9068 11.8775 75.5474 11.5277 75.0969 11.2762C74.6571 11.0248 74.0993 10.899 73.4236 10.899C72.8229 10.899 72.2973 11.0138 71.8468 11.2434C71.3962 11.4621 71.0262 11.7901 70.7366 12.2274C70.4469 12.6538 70.227 13.1731 70.0769 13.7853C69.9374 14.3867 69.8677 15.0754 69.8677 15.8517C69.8677 16.5732 69.9267 17.2401 70.0447 17.8524C70.1627 18.4537 70.3504 18.9785 70.6078 19.4267C70.876 19.875 71.2353 20.2248 71.6859 20.4763C72.1364 20.7168 72.6942 20.8371 73.3592 20.8371C73.9706 20.8371 74.5016 20.7277 74.9521 20.5091C75.4026 20.2795 75.7727 19.9515 76.0623 19.5251C76.3519 19.0987 76.5665 18.5849 76.7059 17.9836C76.8454 17.3713 76.9151 16.6771 76.9151 15.9009Z" fill="#333333"/>
<path d="M93.5198 9.93149C93.5198 10.3251 93.5091 10.6476 93.4877 10.899C93.4662 11.1505 93.434 11.3473 93.3911 11.4894C93.3482 11.6316 93.2892 11.73 93.2141 11.7846C93.1498 11.8393 93.064 11.8666 92.9567 11.8666C92.8709 11.8666 92.7743 11.8502 92.6671 11.8174C92.5598 11.7737 92.4365 11.73 92.297 11.6862C92.1683 11.6425 92.0235 11.6042 91.8626 11.5714C91.7017 11.5277 91.5247 11.5058 91.3316 11.5058C91.1064 11.5058 90.8811 11.555 90.6558 11.6534C90.4306 11.7409 90.1946 11.883 89.9479 12.0798C89.7119 12.2766 89.4598 12.539 89.1917 12.867C88.9342 13.195 88.6553 13.5995 88.355 14.0805V23.1986C88.355 23.3079 88.3228 23.4063 88.2584 23.4938C88.1941 23.5703 88.0815 23.6359 87.9206 23.6906C87.7704 23.7452 87.5666 23.7835 87.3091 23.8054C87.0517 23.8382 86.7245 23.8546 86.3277 23.8546C85.9308 23.8546 85.6036 23.8382 85.3462 23.8054C85.0887 23.7835 84.8796 23.7452 84.7187 23.6906C84.5685 23.6359 84.4612 23.5703 84.3969 23.4938C84.3325 23.4063 84.3003 23.3079 84.3003 23.1986V8.57034C84.3003 8.46101 84.3271 8.36808 84.3808 8.29155C84.4344 8.20408 84.531 8.13302 84.6704 8.07835C84.8098 8.02369 84.9868 7.98542 85.2014 7.96356C85.4266 7.93076 85.7055 7.91436 86.038 7.91436C86.3813 7.91436 86.6655 7.93076 86.8908 7.96356C87.1161 7.98542 87.2877 8.02369 87.4057 8.07835C87.5344 8.13302 87.6256 8.20408 87.6792 8.29155C87.7328 8.36808 87.7597 8.46101 87.7597 8.57034V10.3907C88.1351 9.84402 88.4891 9.39577 88.8216 9.04592C89.1541 8.68513 89.4705 8.40088 89.7709 8.19315C90.0712 7.98542 90.3716 7.8433 90.6719 7.76677C90.9723 7.6793 91.2726 7.63557 91.573 7.63557C91.7124 7.63557 91.8626 7.6465 92.0235 7.66837C92.1844 7.6793 92.3506 7.70664 92.5223 7.75037C92.6939 7.78317 92.8441 7.8269 92.9728 7.88156C93.1015 7.92529 93.1927 7.97449 93.2463 8.02916C93.3107 8.08382 93.3536 8.14395 93.375 8.20955C93.4072 8.27515 93.434 8.36808 93.4555 8.48834C93.4769 8.59767 93.493 8.76713 93.5037 8.99672C93.5145 9.22631 93.5198 9.5379 93.5198 9.93149Z" fill="#333333"/>
<path d="M109.352 23.215C109.352 23.3243 109.32 23.4227 109.256 23.5102C109.202 23.5867 109.095 23.6523 108.934 23.707C108.784 23.7507 108.575 23.7835 108.306 23.8054C108.038 23.8382 107.69 23.8546 107.261 23.8546C106.821 23.8546 106.461 23.8436 106.183 23.8218C105.914 23.7999 105.689 23.7671 105.507 23.7234C105.335 23.6687 105.201 23.5976 105.105 23.5102C105.008 23.4227 104.922 23.3079 104.847 23.1658L100.068 15.4581V23.1986C100.068 23.3079 100.036 23.4063 99.9719 23.4938C99.9075 23.5703 99.7949 23.6359 99.634 23.6906C99.4838 23.7452 99.28 23.7835 99.0226 23.8054C98.7651 23.8382 98.438 23.8546 98.0411 23.8546C97.6442 23.8546 97.317 23.8382 97.0596 23.8054C96.8022 23.7835 96.593 23.7452 96.4321 23.6906C96.2819 23.6359 96.1747 23.5703 96.1103 23.4938C96.0459 23.4063 96.0138 23.3079 96.0138 23.1986V1.6334C96.0138 1.52407 96.0459 1.42567 96.1103 1.33821C96.1747 1.25074 96.2819 1.17968 96.4321 1.12502C96.593 1.05942 96.8022 1.01022 97.0596 0.977421C97.317 0.944622 97.6442 0.928223 98.0411 0.928223C98.438 0.928223 98.7651 0.944622 99.0226 0.977421C99.28 1.01022 99.4838 1.05942 99.634 1.12502C99.7949 1.17968 99.9075 1.25074 99.9719 1.33821C100.036 1.42567 100.068 1.52407 100.068 1.6334V14.4741L104.316 8.65233C104.402 8.52114 104.499 8.40634 104.606 8.30795C104.713 8.20955 104.852 8.13302 105.024 8.07835C105.206 8.02369 105.426 7.98542 105.684 7.96356C105.952 7.93076 106.29 7.91436 106.697 7.91436C107.094 7.91436 107.427 7.93076 107.695 7.96356C107.974 7.98542 108.194 8.02369 108.355 8.07835C108.526 8.13302 108.644 8.20408 108.709 8.29155C108.773 8.36808 108.805 8.46647 108.805 8.58674C108.805 8.75073 108.762 8.92566 108.677 9.11152C108.601 9.29738 108.483 9.49417 108.323 9.70189L104.123 14.5561L108.982 22.2146C109.111 22.4333 109.202 22.6246 109.256 22.7886C109.32 22.9417 109.352 23.0838 109.352 23.215Z" fill="#333333"/>
<path d="M115.901 23.1986C115.901 23.3079 115.869 23.4063 115.804 23.4938C115.74 23.5703 115.627 23.6359 115.466 23.6906C115.316 23.7452 115.112 23.7835 114.855 23.8054C114.598 23.8382 114.27 23.8546 113.874 23.8546C113.477 23.8546 113.149 23.8382 112.892 23.8054C112.635 23.7835 112.425 23.7452 112.265 23.6906C112.114 23.6359 112.007 23.5703 111.943 23.4938C111.878 23.4063 111.846 23.3079 111.846 23.1986V1.6334C111.846 1.52407 111.878 1.42567 111.943 1.33821C112.007 1.25074 112.114 1.17968 112.265 1.12502C112.425 1.05942 112.635 1.01022 112.892 0.977421C113.149 0.944622 113.477 0.928223 113.874 0.928223C114.27 0.928223 114.598 0.944622 114.855 0.977421C115.112 1.01022 115.316 1.05942 115.466 1.12502C115.627 1.17968 115.74 1.25074 115.804 1.33821C115.869 1.42567 115.901 1.52407 115.901 1.6334V23.1986Z" fill="#333333"/>
<path d="M132.184 23.2478C132.184 23.4008 132.13 23.5211 132.023 23.6086C131.916 23.696 131.744 23.7562 131.508 23.789C131.283 23.8327 130.945 23.8546 130.494 23.8546C130.012 23.8546 129.658 23.8327 129.432 23.789C129.218 23.7562 129.062 23.696 128.966 23.6086C128.88 23.5211 128.837 23.4008 128.837 23.2478V22.0834C128.247 22.7285 127.571 23.2314 126.81 23.5922C126.059 23.953 125.222 24.1334 124.3 24.1334C123.538 24.1334 122.836 24.0295 122.192 23.8218C121.559 23.625 121.007 23.3298 120.535 22.9362C120.074 22.5317 119.714 22.0342 119.457 21.4439C119.199 20.8535 119.071 20.1647 119.071 19.3775C119.071 18.5248 119.231 17.7868 119.553 17.1636C119.886 16.5295 120.374 16.0102 121.017 15.6057C121.672 15.1902 122.482 14.8841 123.447 14.6873C124.412 14.4905 125.533 14.3921 126.81 14.3921H128.21V13.5066C128.21 13.0474 128.161 12.6483 128.065 12.3094C127.979 11.9595 127.829 11.6698 127.614 11.4402C127.41 11.2106 127.132 11.0412 126.778 10.9318C126.434 10.8225 126.005 10.7679 125.49 10.7679C124.815 10.7679 124.209 10.8444 123.672 10.9974C123.147 11.1505 122.68 11.32 122.272 11.5058C121.865 11.6917 121.522 11.8611 121.243 12.0142C120.975 12.1673 120.755 12.2438 120.583 12.2438C120.465 12.2438 120.358 12.2055 120.261 12.129C120.175 12.0525 120.1 11.9431 120.036 11.801C119.982 11.6589 119.939 11.484 119.907 11.2762C119.875 11.0685 119.859 10.8389 119.859 10.5875C119.859 10.2485 119.886 9.98068 119.939 9.78389C119.993 9.5871 120.095 9.41217 120.245 9.25911C120.395 9.09512 120.658 8.92019 121.034 8.73433C121.409 8.53754 121.849 8.35714 122.353 8.19315C122.857 8.02916 123.404 7.89796 123.994 7.79957C124.595 7.69024 125.212 7.63557 125.844 7.63557C126.971 7.63557 127.931 7.75037 128.725 7.97996C129.529 8.19862 130.189 8.543 130.704 9.01312C131.218 9.4723 131.594 10.0681 131.83 10.8007C132.066 11.5332 132.184 12.4023 132.184 13.4082V23.2478ZM128.21 16.9832H126.665C126.011 16.9832 125.453 17.0324 124.992 17.1308C124.53 17.2292 124.155 17.3768 123.865 17.5736C123.576 17.7704 123.361 18.0109 123.222 18.2952C123.093 18.5685 123.029 18.8855 123.029 19.2463C123.029 19.8586 123.216 20.3396 123.592 20.6895C123.978 21.0393 124.509 21.2143 125.185 21.2143C125.753 21.2143 126.273 21.0667 126.745 20.7715C127.228 20.4763 127.716 20.0444 128.21 19.4759V16.9832Z" fill="#333333"/>
<path d="M149.947 23.1986C149.947 23.3079 149.915 23.4063 149.851 23.4938C149.786 23.5703 149.679 23.6359 149.529 23.6906C149.379 23.7452 149.169 23.7835 148.901 23.8054C148.644 23.8382 148.322 23.8546 147.936 23.8546C147.539 23.8546 147.206 23.8382 146.938 23.8054C146.681 23.7835 146.477 23.7452 146.327 23.6906C146.177 23.6359 146.069 23.5703 146.005 23.4938C145.941 23.4063 145.909 23.3079 145.909 23.1986V14.8513C145.909 14.1407 145.855 13.5831 145.748 13.1786C145.651 12.774 145.506 12.4297 145.313 12.1454C145.12 11.8502 144.868 11.6261 144.557 11.473C144.257 11.309 143.903 11.227 143.495 11.227C142.98 11.227 142.46 11.4184 141.934 11.801C141.409 12.1837 140.862 12.7412 140.293 13.4738V23.1986C140.293 23.3079 140.261 23.4063 140.197 23.4938C140.132 23.5703 140.02 23.6359 139.859 23.6906C139.709 23.7452 139.505 23.7835 139.247 23.8054C138.99 23.8382 138.663 23.8546 138.266 23.8546C137.869 23.8546 137.542 23.8382 137.284 23.8054C137.027 23.7835 136.818 23.7452 136.657 23.6906C136.507 23.6359 136.399 23.5703 136.335 23.4938C136.271 23.4063 136.238 23.3079 136.238 23.1986V8.57034C136.238 8.46101 136.265 8.36808 136.319 8.29155C136.373 8.20408 136.469 8.13302 136.609 8.07835C136.748 8.02369 136.925 7.98542 137.14 7.96356C137.365 7.93076 137.644 7.91436 137.976 7.91436C138.319 7.91436 138.604 7.93076 138.829 7.96356C139.054 7.98542 139.226 8.02369 139.344 8.07835C139.473 8.13302 139.564 8.20408 139.617 8.29155C139.671 8.36808 139.698 8.46101 139.698 8.57034V10.2595C140.492 9.38484 141.296 8.72886 142.111 8.29155C142.937 7.85423 143.795 7.63557 144.686 7.63557C145.662 7.63557 146.482 7.79957 147.147 8.12755C147.823 8.45554 148.365 8.90379 148.772 9.4723C149.191 10.0299 149.491 10.6859 149.674 11.4402C149.856 12.1946 149.947 13.102 149.947 14.1625V23.1986Z" fill="#333333"/>
<path d="M164.798 20.8699C164.798 21.1541 164.787 21.3947 164.766 21.5914C164.755 21.7773 164.734 21.9358 164.701 22.067C164.68 22.1982 164.648 22.3076 164.605 22.395C164.573 22.4715 164.492 22.5754 164.364 22.7066C164.235 22.8269 164.015 22.9799 163.704 23.1658C163.393 23.3407 163.039 23.4992 162.642 23.6414C162.245 23.7835 161.811 23.8983 161.339 23.9858C160.877 24.0732 160.4 24.117 159.907 24.117C158.802 24.117 157.82 23.942 156.962 23.5922C156.115 23.2423 155.402 22.7285 154.822 22.0506C154.243 21.3619 153.803 20.5255 153.503 19.5415C153.213 18.5576 153.068 17.4315 153.068 16.1633C153.068 14.6982 153.245 13.4355 153.599 12.375C153.964 11.3036 154.468 10.418 155.112 9.71829C155.756 9.01859 156.517 8.49927 157.397 8.16035C158.276 7.82143 159.242 7.65197 160.293 7.65197C160.722 7.65197 161.14 7.69024 161.548 7.76677C161.966 7.8433 162.352 7.94716 162.706 8.07835C163.071 8.20955 163.393 8.35714 163.672 8.52114C163.961 8.68513 164.165 8.82726 164.283 8.94752C164.401 9.06778 164.482 9.17165 164.524 9.25911C164.578 9.33564 164.616 9.4395 164.637 9.5707C164.669 9.70189 164.691 9.86589 164.701 10.0627C164.723 10.2485 164.734 10.4781 164.734 10.7515C164.734 11.3856 164.68 11.8338 164.573 12.0962C164.465 12.3477 164.326 12.4734 164.154 12.4734C163.972 12.4734 163.779 12.3969 163.575 12.2438C163.371 12.0907 163.13 11.9213 162.851 11.7354C162.572 11.5496 162.24 11.3801 161.854 11.227C161.467 11.074 161.006 10.9974 160.47 10.9974C159.419 10.9974 158.614 11.4129 158.056 12.2438C157.499 13.0638 157.22 14.2719 157.22 15.8681C157.22 16.6552 157.289 17.3495 157.429 17.9508C157.568 18.5521 157.772 19.055 158.04 19.4595C158.319 19.864 158.662 20.1702 159.07 20.3779C159.488 20.5747 159.971 20.6731 160.518 20.6731C161.076 20.6731 161.553 20.5911 161.95 20.4271C162.358 20.2522 162.712 20.0608 163.012 19.8531C163.312 19.6454 163.564 19.4595 163.768 19.2955C163.972 19.1206 164.144 19.0331 164.283 19.0331C164.38 19.0331 164.46 19.0605 164.524 19.1151C164.589 19.1698 164.637 19.2737 164.669 19.4267C164.712 19.5689 164.744 19.7547 164.766 19.9843C164.787 20.2139 164.798 20.5091 164.798 20.8699Z" fill="#333333"/>
<path d="M181.001 15.4581C181.001 15.961 180.888 16.3327 180.663 16.5732C180.448 16.8138 180.148 16.934 179.762 16.934H171.025C171.025 17.5572 171.095 18.1257 171.234 18.6396C171.384 19.1425 171.615 19.5743 171.926 19.9351C172.248 20.285 172.655 20.5528 173.149 20.7387C173.653 20.9245 174.254 21.0175 174.951 21.0175C175.659 21.0175 176.281 20.9683 176.817 20.8699C177.354 20.7605 177.815 20.6458 178.201 20.5255C178.598 20.3943 178.925 20.2795 179.182 20.1811C179.44 20.0718 179.649 20.0171 179.81 20.0171C179.906 20.0171 179.987 20.039 180.051 20.0827C180.116 20.1155 180.169 20.1811 180.212 20.2795C180.255 20.3779 180.282 20.52 180.293 20.7059C180.314 20.8808 180.325 21.1049 180.325 21.3783C180.325 21.6188 180.319 21.8265 180.309 22.0014C180.298 22.1654 180.282 22.3076 180.26 22.4278C180.239 22.5481 180.207 22.6519 180.164 22.7394C180.121 22.8159 180.062 22.8925 179.987 22.969C179.923 23.0455 179.735 23.1494 179.424 23.2806C179.113 23.4118 178.716 23.543 178.233 23.6742C177.75 23.7944 177.198 23.8983 176.576 23.9858C175.954 24.0842 175.289 24.1334 174.581 24.1334C173.304 24.1334 172.183 23.9694 171.218 23.6414C170.263 23.3134 169.464 22.8159 168.82 22.149C168.177 21.4821 167.694 20.6403 167.372 19.6235C167.061 18.6068 166.906 17.4151 166.906 16.0485C166.906 14.7474 167.072 13.5776 167.405 12.539C167.737 11.4894 168.22 10.6039 168.853 9.88229C169.486 9.14978 170.252 8.5922 171.154 8.20955C172.065 7.8269 173.09 7.63557 174.227 7.63557C175.428 7.63557 176.452 7.81596 177.3 8.17675C178.158 8.53754 178.861 9.04045 179.408 9.68549C179.955 10.3196 180.357 11.074 180.614 11.9486C180.872 12.8232 181.001 13.7744 181.001 14.8021V15.4581ZM177.075 14.2773C177.107 13.1184 176.876 12.211 176.383 11.555C175.9 10.8881 175.149 10.5547 174.13 10.5547C173.615 10.5547 173.165 10.6531 172.779 10.8499C172.403 11.0466 172.087 11.3145 171.829 11.6534C171.583 11.9814 171.39 12.375 171.25 12.8342C171.121 13.2824 171.046 13.7635 171.025 14.2773H177.075Z" fill="#333333"/>
<path d="M0.563048 7.2765C0.130259 6.52688 0.671245 5.58987 1.53682 5.58987L5.36871 5.58987C6.61424 5.58987 7.76544 6.25339 8.38978 7.33113L14.1729 17.3139C14.3931 17.694 14.3718 18.1674 14.1184 18.5262L11.2474 22.5914C10.7741 23.2616 9.76547 23.2156 9.3552 22.505L0.563048 7.2765Z" fill="#007BFF"/>
<path d="M20.1593 5.93502C19.7726 5.2652 20.1619 4.41399 20.9216 4.26847L23.9521 3.68792C25.4092 3.4088 26.8835 4.08093 27.6284 5.36389L30.2654 9.90567C30.5195 10.3434 30.4499 10.897 30.0952 11.2582L26.8097 14.6033C26.2886 15.1338 25.4054 15.0215 25.0337 14.3776L20.1593 5.93502Z" fill="#007BFF"/>
<path d="M9.24884 4.35902C8.81605 3.6094 9.35704 2.67239 10.2226 2.67239L14.0545 2.67239C15.3 2.67239 16.4512 3.33591 17.0756 4.41365L22.8587 14.3964C23.0789 14.7765 23.0576 15.2499 22.8042 15.6087L19.9332 19.6739C19.4599 20.3442 18.4513 20.2981 18.041 19.5875L9.24884 4.35902Z" fill="#007BFF"/>
</svg>
