<svg width="181" height="25" viewBox="0 0 181 25" fill="none" xmlns="http://www.w3.org/2000/svg">
<path d="M64.2682 8.53754C64.2682 8.6578 64.2521 8.80539 64.2199 8.98032C64.1877 9.15525 64.1287 9.4067 64.0429 9.73469L60.2135 22.969C60.1599 23.1549 60.0902 23.3079 60.0044 23.4282C59.9185 23.5375 59.7845 23.625 59.6021 23.6906C59.4305 23.7562 59.1784 23.7999 58.8459 23.8218C58.5241 23.8436 58.1004 23.8546 57.5748 23.8546C57.0492 23.8546 56.6201 23.8382 56.2876 23.8054C55.9551 23.7835 55.6923 23.7398 55.4992 23.6742C55.3168 23.6086 55.1828 23.5211 55.0969 23.4118C55.0111 23.2915 54.9468 23.1439 54.9039 22.969L52.4904 14.0805L52.4582 13.9329L52.426 14.0805L50.2056 22.969C50.1627 23.1549 50.0984 23.3079 50.0125 23.4282C49.9375 23.5375 49.8034 23.625 49.6103 23.6906C49.4172 23.7562 49.1544 23.7999 48.8219 23.8218C48.4894 23.8436 48.0603 23.8546 47.5347 23.8546C46.9984 23.8546 46.5639 23.8382 46.2314 23.8054C45.9096 23.7835 45.6522 23.7398 45.4591 23.6742C45.2768 23.6086 45.1427 23.5211 45.0569 23.4118C44.971 23.2915 44.9067 23.1439 44.8638 22.969L41.0666 9.73469C40.97 9.41764 40.9057 9.17165 40.8735 8.99672C40.852 8.81086 40.8413 8.6578 40.8413 8.53754C40.8413 8.42821 40.8681 8.33528 40.9218 8.25875C40.9861 8.17128 41.0934 8.10569 41.2436 8.06196C41.4045 8.00729 41.6136 7.96903 41.8711 7.94716C42.1392 7.92529 42.4718 7.91436 42.8686 7.91436C43.2977 7.91436 43.6463 7.92529 43.9145 7.94716C44.1826 7.96903 44.3918 8.00729 44.542 8.06196C44.6922 8.11662 44.7941 8.19315 44.8477 8.29155C44.912 8.37901 44.9603 8.48834 44.9925 8.61953L47.8404 19.3611L47.8726 19.5579L47.9048 19.3611L50.5757 8.61953C50.6079 8.48834 50.6561 8.37901 50.7205 8.29155C50.7956 8.19315 50.9029 8.11662 51.0423 8.06196C51.1817 8.00729 51.3748 7.96903 51.6215 7.94716C51.879 7.92529 52.2061 7.91436 52.603 7.91436C52.9999 7.91436 53.3217 7.93076 53.5684 7.96356C53.8151 7.98542 54.0082 8.02369 54.1476 8.07835C54.2978 8.12209 54.3997 8.18768 54.4534 8.27515C54.5177 8.35168 54.566 8.44461 54.5982 8.55394L57.4622 19.3775L57.5104 19.5579L57.5426 19.3611L60.2779 8.61953C60.2993 8.48834 60.3422 8.37901 60.4066 8.29155C60.471 8.19315 60.5782 8.11662 60.7284 8.06196C60.8786 8.00729 61.0824 7.96903 61.3398 7.94716C61.5973 7.92529 61.9244 7.91436 62.3213 7.91436C62.7182 7.91436 63.04 7.92529 63.2867 7.94716C63.5441 7.96903 63.7426 8.00729 63.882 8.06196C64.0322 8.10569 64.1341 8.17128 64.1877 8.25875C64.2414 8.33528 64.2682 8.42821 64.2682 8.53754Z" fill="#333333"/>
<path d="M81.0821 15.7369C81.0821 16.9832 80.9212 18.1202 80.5994 19.1479C80.2776 20.1756 79.7896 21.0612 79.1352 21.8046C78.4809 22.5481 77.6603 23.1221 76.6735 23.5266C75.6866 23.9311 74.5335 24.1334 73.2142 24.1334C71.9377 24.1334 70.8275 23.953 69.8836 23.5922C68.9396 23.2314 68.1566 22.7066 67.5344 22.0178C66.9123 21.3291 66.451 20.4818 66.1507 19.4759C65.8504 18.4701 65.7002 17.3221 65.7002 16.0321C65.7002 14.7857 65.8611 13.6487 66.1829 12.621C66.5154 11.5824 67.0088 10.6968 67.6631 9.96428C68.3175 9.22085 69.1327 8.64687 70.1088 8.24235C71.0957 7.83783 72.2488 7.63557 73.5681 7.63557C74.8553 7.63557 75.9709 7.81596 76.9148 8.17675C77.8588 8.5266 78.6364 9.04592 79.2479 9.73469C79.87 10.4235 80.3312 11.2708 80.6316 12.2766C80.9319 13.2824 81.0821 14.4359 81.0821 15.7369ZM76.9148 15.9009C76.9148 15.1793 76.8558 14.5178 76.7378 13.9165C76.6306 13.3043 76.4429 12.774 76.1747 12.3258C75.9065 11.8775 75.5472 11.5277 75.0967 11.2762C74.6569 11.0248 74.0991 10.899 73.4233 10.899C72.8226 10.899 72.297 11.0138 71.8465 11.2434C71.396 11.4621 71.0259 11.7901 70.7363 12.2274C70.4467 12.6538 70.2268 13.1731 70.0766 13.7853C69.9372 14.3867 69.8675 15.0754 69.8675 15.8517C69.8675 16.5732 69.9265 17.2401 70.0444 17.8524C70.1624 18.4537 70.3502 18.9785 70.6076 19.4267C70.8758 19.875 71.2351 20.2248 71.6856 20.4763C72.1361 20.7168 72.6939 20.8371 73.359 20.8371C73.9704 20.8371 74.5013 20.7277 74.9519 20.5091C75.4024 20.2795 75.7724 19.9515 76.0621 19.5251C76.3517 19.0987 76.5662 18.5849 76.7057 17.9836C76.8451 17.3713 76.9148 16.6771 76.9148 15.9009Z" fill="#333333"/>
<path d="M93.5196 9.93149C93.5196 10.3251 93.5089 10.6476 93.4874 10.899C93.466 11.1505 93.4338 11.3473 93.3909 11.4894C93.348 11.6316 93.289 11.73 93.2139 11.7846C93.1495 11.8393 93.0637 11.8666 92.9564 11.8666C92.8706 11.8666 92.7741 11.8502 92.6668 11.8174C92.5596 11.7737 92.4362 11.73 92.2968 11.6862C92.168 11.6425 92.0232 11.6042 91.8623 11.5714C91.7014 11.5277 91.5244 11.5058 91.3314 11.5058C91.1061 11.5058 90.8808 11.555 90.6556 11.6534C90.4303 11.7409 90.1943 11.883 89.9476 12.0798C89.7117 12.2766 89.4596 12.539 89.1914 12.867C88.934 13.195 88.6551 13.5995 88.3547 14.0805V23.1986C88.3547 23.3079 88.3226 23.4063 88.2582 23.4938C88.1938 23.5703 88.0812 23.6359 87.9203 23.6906C87.7701 23.7452 87.5663 23.7835 87.3089 23.8054C87.0515 23.8382 86.7243 23.8546 86.3274 23.8546C85.9305 23.8546 85.6034 23.8382 85.3459 23.8054C85.0885 23.7835 84.8793 23.7452 84.7184 23.6906C84.5683 23.6359 84.461 23.5703 84.3966 23.4938C84.3323 23.4063 84.3001 23.3079 84.3001 23.1986V8.57034C84.3001 8.46101 84.3269 8.36808 84.3805 8.29155C84.4342 8.20408 84.5307 8.13302 84.6702 8.07835C84.8096 8.02369 84.9866 7.98542 85.2011 7.96356C85.4264 7.93076 85.7053 7.91436 86.0378 7.91436C86.381 7.91436 86.6653 7.93076 86.8906 7.96356C87.1158 7.98542 87.2874 8.02369 87.4054 8.07835C87.5342 8.13302 87.6253 8.20408 87.679 8.29155C87.7326 8.36808 87.7594 8.46101 87.7594 8.57034V10.3907C88.1348 9.84402 88.4888 9.39577 88.8213 9.04592C89.1539 8.68513 89.4703 8.40088 89.7706 8.19315C90.071 7.98542 90.3713 7.8433 90.6717 7.76677C90.972 7.6793 91.2724 7.63557 91.5727 7.63557C91.7122 7.63557 91.8623 7.6465 92.0232 7.66837C92.1841 7.6793 92.3504 7.70664 92.522 7.75037C92.6936 7.78317 92.8438 7.8269 92.9725 7.88156C93.1013 7.92529 93.1924 7.97449 93.2461 8.02916C93.3104 8.08382 93.3533 8.14395 93.3748 8.20955C93.407 8.27515 93.4338 8.36808 93.4552 8.48834C93.4767 8.59767 93.4928 8.76713 93.5035 8.99672C93.5142 9.22631 93.5196 9.5379 93.5196 9.93149Z" fill="#333333"/>
<path d="M109.352 23.215C109.352 23.3243 109.32 23.4227 109.256 23.5102C109.202 23.5867 109.095 23.6523 108.934 23.707C108.784 23.7507 108.574 23.7835 108.306 23.8054C108.038 23.8382 107.689 23.8546 107.26 23.8546C106.821 23.8546 106.461 23.8436 106.182 23.8218C105.914 23.7999 105.689 23.7671 105.507 23.7234C105.335 23.6687 105.201 23.5976 105.104 23.5102C105.008 23.4227 104.922 23.3079 104.847 23.1658L100.068 15.4581V23.1986C100.068 23.3079 100.036 23.4063 99.9716 23.4938C99.9073 23.5703 99.7946 23.6359 99.6337 23.6906C99.4836 23.7452 99.2798 23.7835 99.0223 23.8054C98.7649 23.8382 98.4377 23.8546 98.0408 23.8546C97.644 23.8546 97.3168 23.8382 97.0594 23.8054C96.8019 23.7835 96.5928 23.7452 96.4319 23.6906C96.2817 23.6359 96.1744 23.5703 96.1101 23.4938C96.0457 23.4063 96.0135 23.3079 96.0135 23.1986V1.6334C96.0135 1.52407 96.0457 1.42567 96.1101 1.33821C96.1744 1.25074 96.2817 1.17968 96.4319 1.12502C96.5928 1.05942 96.8019 1.01022 97.0594 0.977421C97.3168 0.944622 97.644 0.928223 98.0408 0.928223C98.4377 0.928223 98.7649 0.944622 99.0223 0.977421C99.2798 1.01022 99.4836 1.05942 99.6337 1.12502C99.7946 1.17968 99.9073 1.25074 99.9716 1.33821C100.036 1.42567 100.068 1.52407 100.068 1.6334V14.4741L104.316 8.65233C104.402 8.52114 104.498 8.40634 104.606 8.30795C104.713 8.20955 104.852 8.13302 105.024 8.07835C105.206 8.02369 105.426 7.98542 105.684 7.96356C105.952 7.93076 106.29 7.91436 106.697 7.91436C107.094 7.91436 107.427 7.93076 107.695 7.96356C107.974 7.98542 108.194 8.02369 108.354 8.07835C108.526 8.13302 108.644 8.20408 108.708 8.29155C108.773 8.36808 108.805 8.46647 108.805 8.58674C108.805 8.75073 108.762 8.92566 108.676 9.11152C108.601 9.29738 108.483 9.49417 108.322 9.70189L104.123 14.5561L108.982 22.2146C109.111 22.4333 109.202 22.6246 109.256 22.7886C109.32 22.9417 109.352 23.0838 109.352 23.215Z" fill="#333333"/>
<path d="M115.901 23.1986C115.901 23.3079 115.868 23.4063 115.804 23.4938C115.74 23.5703 115.627 23.6359 115.466 23.6906C115.316 23.7452 115.112 23.7835 114.855 23.8054C114.597 23.8382 114.27 23.8546 113.873 23.8546C113.476 23.8546 113.149 23.8382 112.892 23.8054C112.634 23.7835 112.425 23.7452 112.264 23.6906C112.114 23.6359 112.007 23.5703 111.943 23.4938C111.878 23.4063 111.846 23.3079 111.846 23.1986V1.6334C111.846 1.52407 111.878 1.42567 111.943 1.33821C112.007 1.25074 112.114 1.17968 112.264 1.12502C112.425 1.05942 112.634 1.01022 112.892 0.977421C113.149 0.944622 113.476 0.928223 113.873 0.928223C114.27 0.928223 114.597 0.944622 114.855 0.977421C115.112 1.01022 115.316 1.05942 115.466 1.12502C115.627 1.17968 115.74 1.25074 115.804 1.33821C115.868 1.42567 115.901 1.52407 115.901 1.6334V23.1986Z" fill="#333333"/>
<path d="M132.184 23.2478C132.184 23.4008 132.13 23.5211 132.023 23.6086C131.915 23.696 131.744 23.7562 131.508 23.789C131.283 23.8327 130.945 23.8546 130.494 23.8546C130.011 23.8546 129.657 23.8327 129.432 23.789C129.218 23.7562 129.062 23.696 128.966 23.6086C128.88 23.5211 128.837 23.4008 128.837 23.2478V22.0834C128.247 22.7285 127.571 23.2314 126.81 23.5922C126.059 23.953 125.222 24.1334 124.3 24.1334C123.538 24.1334 122.835 24.0295 122.192 23.8218C121.559 23.625 121.006 23.3298 120.535 22.9362C120.073 22.5317 119.714 22.0342 119.456 21.4439C119.199 20.8535 119.07 20.1647 119.07 19.3775C119.07 18.5248 119.231 17.7868 119.553 17.1636C119.886 16.5295 120.374 16.0102 121.017 15.6057C121.672 15.1902 122.481 14.8841 123.447 14.6873C124.412 14.4905 125.533 14.3921 126.81 14.3921H128.209V13.5066C128.209 13.0474 128.161 12.6483 128.065 12.3094C127.979 11.9595 127.829 11.6698 127.614 11.4402C127.41 11.2106 127.131 11.0412 126.777 10.9318C126.434 10.8225 126.005 10.7679 125.49 10.7679C124.814 10.7679 124.208 10.8444 123.672 10.9974C123.146 11.1505 122.68 11.32 122.272 11.5058C121.865 11.6917 121.521 11.8611 121.242 12.0142C120.974 12.1673 120.754 12.2438 120.583 12.2438C120.465 12.2438 120.358 12.2055 120.261 12.129C120.175 12.0525 120.1 11.9431 120.036 11.801C119.982 11.6589 119.939 11.484 119.907 11.2762C119.875 11.0685 119.859 10.8389 119.859 10.5875C119.859 10.2485 119.886 9.98068 119.939 9.78389C119.993 9.5871 120.095 9.41217 120.245 9.25911C120.395 9.09512 120.658 8.92019 121.033 8.73433C121.409 8.53754 121.849 8.35714 122.353 8.19315C122.857 8.02916 123.404 7.89796 123.994 7.79957C124.595 7.69024 125.211 7.63557 125.844 7.63557C126.97 7.63557 127.93 7.75037 128.724 7.97996C129.529 8.19862 130.188 8.543 130.703 9.01312C131.218 9.4723 131.594 10.0681 131.83 10.8007C132.066 11.5332 132.184 12.4023 132.184 13.4082V23.2478ZM128.209 16.9832H126.665C126.01 16.9832 125.453 17.0324 124.991 17.1308C124.53 17.2292 124.155 17.3768 123.865 17.5736C123.575 17.7704 123.361 18.0109 123.222 18.2952C123.093 18.5685 123.028 18.8855 123.028 19.2463C123.028 19.8586 123.216 20.3396 123.592 20.6895C123.978 21.0393 124.509 21.2143 125.184 21.2143C125.753 21.2143 126.273 21.0667 126.745 20.7715C127.228 20.4763 127.716 20.0444 128.209 19.4759V16.9832Z" fill="#333333"/>
<path d="M149.947 23.1986C149.947 23.3079 149.915 23.4063 149.85 23.4938C149.786 23.5703 149.679 23.6359 149.528 23.6906C149.378 23.7452 149.169 23.7835 148.901 23.8054C148.644 23.8382 148.322 23.8546 147.936 23.8546C147.539 23.8546 147.206 23.8382 146.938 23.8054C146.681 23.7835 146.477 23.7452 146.327 23.6906C146.176 23.6359 146.069 23.5703 146.005 23.4938C145.94 23.4063 145.908 23.3079 145.908 23.1986V14.8513C145.908 14.1407 145.855 13.5831 145.747 13.1786C145.651 12.774 145.506 12.4297 145.313 12.1454C145.12 11.8502 144.868 11.6261 144.557 11.473C144.256 11.309 143.902 11.227 143.495 11.227C142.98 11.227 142.46 11.4184 141.934 11.801C141.408 12.1837 140.861 12.7412 140.293 13.4738V23.1986C140.293 23.3079 140.261 23.4063 140.196 23.4938C140.132 23.5703 140.019 23.6359 139.858 23.6906C139.708 23.7452 139.504 23.7835 139.247 23.8054C138.99 23.8382 138.662 23.8546 138.266 23.8546C137.869 23.8546 137.542 23.8382 137.284 23.8054C137.027 23.7835 136.817 23.7452 136.657 23.6906C136.506 23.6359 136.399 23.5703 136.335 23.4938C136.27 23.4063 136.238 23.3079 136.238 23.1986V8.57034C136.238 8.46101 136.265 8.36808 136.319 8.29155C136.372 8.20408 136.469 8.13302 136.608 8.07835C136.748 8.02369 136.925 7.98542 137.139 7.96356C137.365 7.93076 137.643 7.91436 137.976 7.91436C138.319 7.91436 138.603 7.93076 138.829 7.96356C139.054 7.98542 139.226 8.02369 139.344 8.07835C139.472 8.13302 139.563 8.20408 139.617 8.29155C139.671 8.36808 139.698 8.46101 139.698 8.57034V10.2595C140.491 9.38484 141.296 8.72886 142.111 8.29155C142.937 7.85423 143.795 7.63557 144.685 7.63557C145.662 7.63557 146.482 7.79957 147.147 8.12755C147.823 8.45554 148.365 8.90379 148.772 9.4723C149.191 10.0299 149.491 10.6859 149.673 11.4402C149.856 12.1946 149.947 13.102 149.947 14.1625V23.1986Z" fill="#333333"/>
<path d="M164.798 20.8699C164.798 21.1541 164.787 21.3947 164.766 21.5914C164.755 21.7773 164.733 21.9358 164.701 22.067C164.68 22.1982 164.648 22.3076 164.605 22.395C164.573 22.4715 164.492 22.5754 164.363 22.7066C164.235 22.8269 164.015 22.9799 163.704 23.1658C163.393 23.3407 163.039 23.4992 162.642 23.6414C162.245 23.7835 161.81 23.8983 161.338 23.9858C160.877 24.0732 160.4 24.117 159.906 24.117C158.802 24.117 157.82 23.942 156.962 23.5922C156.115 23.2423 155.401 22.7285 154.822 22.0506C154.243 21.3619 153.803 20.5255 153.503 19.5415C153.213 18.5576 153.068 17.4315 153.068 16.1633C153.068 14.6982 153.245 13.4355 153.599 12.375C153.964 11.3036 154.468 10.418 155.112 9.71829C155.755 9.01859 156.517 8.49927 157.396 8.16035C158.276 7.82143 159.241 7.65197 160.293 7.65197C160.722 7.65197 161.14 7.69024 161.548 7.76677C161.966 7.8433 162.352 7.94716 162.706 8.07835C163.071 8.20955 163.393 8.35714 163.671 8.52114C163.961 8.68513 164.165 8.82726 164.283 8.94752C164.401 9.06778 164.481 9.17165 164.524 9.25911C164.578 9.33564 164.615 9.4395 164.637 9.5707C164.669 9.70189 164.691 9.86589 164.701 10.0627C164.723 10.2485 164.733 10.4781 164.733 10.7515C164.733 11.3856 164.68 11.8338 164.573 12.0962C164.465 12.3477 164.326 12.4734 164.154 12.4734C163.972 12.4734 163.779 12.3969 163.575 12.2438C163.371 12.0907 163.13 11.9213 162.851 11.7354C162.572 11.5496 162.239 11.3801 161.853 11.227C161.467 11.074 161.006 10.9974 160.47 10.9974C159.418 10.9974 158.614 11.4129 158.056 12.2438C157.498 13.0638 157.219 14.2719 157.219 15.8681C157.219 16.6552 157.289 17.3495 157.429 17.9508C157.568 18.5521 157.772 19.055 158.04 19.4595C158.319 19.864 158.662 20.1702 159.07 20.3779C159.488 20.5747 159.971 20.6731 160.518 20.6731C161.076 20.6731 161.553 20.5911 161.95 20.4271C162.357 20.2522 162.711 20.0608 163.012 19.8531C163.312 19.6454 163.564 19.4595 163.768 19.2955C163.972 19.1206 164.143 19.0331 164.283 19.0331C164.379 19.0331 164.46 19.0605 164.524 19.1151C164.589 19.1698 164.637 19.2737 164.669 19.4267C164.712 19.5689 164.744 19.7547 164.766 19.9843C164.787 20.2139 164.798 20.5091 164.798 20.8699Z" fill="#333333"/>
<path d="M181 15.4581C181 15.961 180.888 16.3327 180.662 16.5732C180.448 16.8138 180.148 16.934 179.761 16.934H171.025C171.025 17.5572 171.094 18.1257 171.234 18.6396C171.384 19.1425 171.615 19.5743 171.926 19.9351C172.247 20.285 172.655 20.5528 173.148 20.7387C173.653 20.9245 174.253 21.0175 174.951 21.0175C175.658 21.0175 176.281 20.9683 176.817 20.8699C177.353 20.7605 177.814 20.6458 178.201 20.5255C178.598 20.3943 178.925 20.2795 179.182 20.1811C179.44 20.0718 179.649 20.0171 179.81 20.0171C179.906 20.0171 179.987 20.039 180.051 20.0827C180.115 20.1155 180.169 20.1811 180.212 20.2795C180.255 20.3779 180.282 20.52 180.292 20.7059C180.314 20.8808 180.325 21.1049 180.325 21.3783C180.325 21.6188 180.319 21.8265 180.308 22.0014C180.298 22.1654 180.282 22.3076 180.26 22.4278C180.239 22.5481 180.207 22.6519 180.164 22.7394C180.121 22.8159 180.062 22.8925 179.987 22.969C179.922 23.0455 179.735 23.1494 179.423 23.2806C179.112 23.4118 178.716 23.543 178.233 23.6742C177.75 23.7944 177.198 23.8983 176.576 23.9858C175.953 24.0842 175.288 24.1334 174.58 24.1334C173.304 24.1334 172.183 23.9694 171.218 23.6414C170.263 23.3134 169.464 22.8159 168.82 22.149C168.177 21.4821 167.694 20.6403 167.372 19.6235C167.061 18.6068 166.906 17.4151 166.906 16.0485C166.906 14.7474 167.072 13.5776 167.404 12.539C167.737 11.4894 168.22 10.6039 168.852 9.88229C169.485 9.14978 170.252 8.5922 171.153 8.20955C172.065 7.8269 173.089 7.63557 174.226 7.63557C175.428 7.63557 176.452 7.81596 177.3 8.17675C178.158 8.53754 178.86 9.04045 179.407 9.68549C179.954 10.3196 180.357 11.074 180.614 11.9486C180.872 12.8232 181 13.7744 181 14.8021V15.4581ZM177.074 14.2773C177.107 13.1184 176.876 12.211 176.382 11.555C175.9 10.8881 175.149 10.5547 174.13 10.5547C173.615 10.5547 173.165 10.6531 172.778 10.8499C172.403 11.0466 172.087 11.3145 171.829 11.6534C171.582 11.9814 171.389 12.375 171.25 12.8342C171.121 13.2824 171.046 13.7635 171.025 14.2773H177.074Z" fill="#333333"/>
<path d="M0.563048 7.2765C0.130259 6.52688 0.671245 5.58987 1.53682 5.58987L5.36871 5.58987C6.61424 5.58987 7.76544 6.25339 8.38978 7.33113L14.1729 17.3139C14.3931 17.694 14.3718 18.1674 14.1184 18.5262L11.2474 22.5914C10.7741 23.2616 9.76547 23.2156 9.3552 22.505L0.563048 7.2765Z" fill="#007BFF"/>
<path d="M20.1593 5.93502C19.7726 5.2652 20.1619 4.41399 20.9216 4.26847L23.9521 3.68792C25.4092 3.4088 26.8835 4.08093 27.6284 5.36389L30.2654 9.90567C30.5195 10.3434 30.4499 10.897 30.0952 11.2582L26.8097 14.6033C26.2886 15.1338 25.4054 15.0215 25.0337 14.3776L20.1593 5.93502Z" fill="#007BFF"/>
<path d="M9.24908 4.35902C8.81629 3.6094 9.35728 2.67239 10.2229 2.67239L14.0547 2.67239C15.3003 2.67239 16.4515 3.33591 17.0758 4.41365L22.8589 14.3964C23.0791 14.7765 23.0578 15.2499 22.8045 15.6087L19.9335 19.6739C19.4601 20.3442 18.4515 20.2981 18.0412 19.5875L9.24908 4.35902Z" fill="#007BFF"/>
</svg>
